<?xml version="1.0" standalone="no"?>
<!DOCTYPE svg PUBLIC "-//W3C//DTD SVG 20010904//EN"
 "http://www.w3.org/TR/2001/REC-SVG-20010904/DTD/svg10.dtd">
<svg version="1.0" xmlns="http://www.w3.org/2000/svg"
 width="1024.000000pt" height="1024.000000pt" viewBox="0 0 1024.000000 1024.000000"
 preserveAspectRatio="xMidYMid meet">

<g transform="translate(0.000000,1024.000000) scale(0.100000,-0.100000)"
fill="#000000" stroke="none">
<path d="M0 5120 l0 -5120 5120 0 5120 0 0 5120 0 5120 -5120 0 -5120 0 0
-5120z m3362 1714 c337 -168 623 -315 636 -327 23 -21 29 -61 13 -86 -5 -8
-63 -42 -128 -75 l-118 -61 -3 -278 -2 -279 30 -34 c77 -88 -9 -224 -114 -180
-51 22 -71 52 -71 106 0 39 5 54 28 77 l27 29 0 235 c0 128 -5 241 -10 249 -7
12 -73 -17 -376 -170 -202 -102 -400 -205 -441 -228 -112 -67 -129 -66 -270 8
-65 35 -201 107 -303 160 -102 54 -286 151 -410 217 -124 65 -264 138 -313
162 -118 58 -141 93 -94 145 34 38 1231 636 1273 636 24 0 210 -88 646 -306z
m5164 -279 c14 -22 15 -74 12 -497 -4 -450 -5 -476 -26 -538 -73 -222 -242
-330 -517 -331 -291 -1 -452 103 -531 341 -16 49 -18 104 -22 524 -2 258 -1
480 3 493 5 23 8 23 130 23 112 0 125 -2 134 -19 7 -11 12 -190 14 -462 3
-438 4 -445 26 -497 45 -102 134 -148 270 -140 89 5 145 30 189 84 53 64 55
82 59 569 2 248 6 456 8 463 3 9 36 12 119 12 112 0 116 -1 132 -25z m-2742
-1 c11 -30 7 -219 -6 -232 -9 -9 -89 -12 -300 -12 l-288 0 0 -150 0 -150 248
0 c180 0 251 -3 260 -12 14 -14 17 -214 3 -223 -6 -3 -123 -6 -260 -8 l-251
-2 0 -142 0 -143 298 0 c218 0 301 -3 310 -12 15 -15 16 -211 2 -239 -10 -18
-26 -19 -443 -19 -324 0 -436 3 -445 12 -9 9 -12 172 -12 673 0 364 3 665 7
668 3 4 201 7 439 7 385 0 433 -2 438 -16z m861 6 c286 -41 496 -221 566 -487
30 -113 30 -290 0 -398 -57 -207 -224 -368 -451 -436 -69 -20 -99 -22 -385
-25 -209 -2 -313 0 -322 8 -10 8 -13 143 -13 670 l0 659 23 9 c30 12 495 12
582 0z m-4625 -601 c30 -17 152 -80 270 -142 118 -61 251 -130 295 -155 113
-62 122 -62 235 -2 52 28 215 111 363 185 l267 135 0 -209 0 -209 -222 -114
c-123 -64 -279 -150 -347 -192 -68 -42 -133 -79 -146 -82 -27 -7 -45 2 -210
101 -138 83 -315 173 -451 230 -145 60 -133 35 -127 278 3 114 9 207 12 207 3
0 31 -14 61 -31z m-498 -645 c189 -40 520 -157 638 -226 164 -96 296 -195 386
-289 104 -109 93 -19 95 -833 1 -394 -2 -720 -5 -723 -3 -4 -52 42 -108 101
-144 152 -237 209 -518 319 -119 46 -300 83 -549 112 -95 10 -140 20 -153 31
-17 16 -18 51 -18 757 0 830 -5 777 71 777 21 0 94 -12 161 -26z m2622 8 c15
-17 16 -79 14 -766 -3 -696 -4 -748 -20 -760 -10 -7 -60 -16 -111 -19 -124 -8
-330 -41 -447 -71 -119 -30 -379 -140 -468 -198 -36 -23 -118 -94 -180 -155
-63 -62 -117 -113 -121 -113 -10 0 -21 543 -21 1036 l0 391 31 46 c36 55 132
145 242 228 220 166 535 302 842 364 197 39 217 41 239 17z m3674 -497 c34 -8
81 -24 105 -36 60 -30 156 -93 157 -102 0 -11 -132 -185 -145 -191 -6 -2 -49
15 -95 37 -78 38 -92 42 -166 42 -70 0 -85 -3 -117 -25 -41 -28 -61 -74 -51
-116 14 -61 73 -100 224 -149 286 -93 429 -270 392 -489 -20 -124 -71 -207
-165 -269 -136 -90 -356 -111 -537 -50 -67 23 -170 87 -218 136 l-43 44 77 97
c42 53 83 96 91 96 8 0 38 -20 66 -45 72 -63 162 -98 257 -98 125 -1 190 48
190 143 0 79 -28 100 -214 165 -156 53 -245 103 -317 174 -78 78 -102 144 -97
266 3 75 9 101 35 157 55 117 172 205 303 227 66 12 182 5 268 -14z m995 15
c37 -6 92 -18 122 -28 53 -18 215 -110 215 -122 0 -10 -124 -172 -143 -188
-13 -11 -23 -10 -60 12 -65 38 -153 66 -210 66 -143 0 -215 -121 -124 -207 41
-39 49 -43 182 -87 195 -66 317 -153 372 -265 25 -51 28 -66 28 -166 0 -105
-2 -114 -33 -177 -78 -159 -258 -248 -473 -235 -172 11 -300 63 -416 171 -18
16 -33 34 -33 39 0 14 150 197 162 197 6 0 33 -18 60 -40 26 -23 78 -55 115
-72 56 -27 79 -32 142 -32 128 0 194 49 195 146 1 74 -37 105 -195 156 -158
51 -205 72 -279 122 -141 96 -194 259 -140 432 64 206 262 314 513 278z
m-3230 -49 c129 -45 208 -121 259 -249 18 -47 22 -76 23 -167 0 -103 -2 -114
-31 -175 -43 -89 -100 -150 -181 -193 -98 -51 -140 -60 -311 -66 l-154 -6 2
-226 1 -226 -62 -7 c-72 -7 -199 2 -216 17 -10 7 -13 151 -13 656 0 504 3 650
13 660 9 9 79 11 307 9 280 -3 298 -5 363 -27z m1009 17 c15 -11 64 -141 328
-853 29 -77 79 -212 111 -299 32 -87 59 -163 59 -168 0 -5 -66 -7 -147 -6
l-148 3 -41 120 -41 120 -258 5 -257 5 -13 -25 c-6 -14 -24 -65 -39 -115 -16
-49 -33 -96 -38 -102 -8 -9 -52 -13 -160 -13 -138 0 -148 1 -139 18 5 9 64
166 131 347 147 396 251 675 316 848 l49 127 135 0 c94 0 141 -4 152 -12z"/>
<path d="M6396 6303 l-69 -4 6 -166 c4 -91 7 -276 7 -410 l0 -243 145 0 c119
0 157 4 204 20 85 28 126 56 164 108 59 83 70 118 75 236 9 202 -38 311 -173
403 -64 44 -201 65 -359 56z"/>
<path d="M5190 4374 l0 -197 125 5 c100 5 133 10 170 28 91 44 128 169 78 266
-12 22 -28 45 -35 52 -28 23 -133 42 -235 42 l-103 0 0 -196z"/>
<path d="M6440 4478 c0 -16 -122 -393 -157 -485 -4 -10 33 -13 167 -13 141 0
171 2 167 14 -21 55 -157 480 -157 492 0 8 -4 14 -10 14 -5 0 -10 -10 -10 -22z"/>
</g>
</svg>
